<mxfile host="app.diagrams.net" agent="Mozilla/5.0 (Windows NT 10.0; Win64; x64) AppleWebKit/537.36 (KHTML, like Gecko) Chrome/133.0.0.0 Safari/537.36" version="26.0.16">
  <diagram name="PÃ¡gina-1" id="xEGR8yg76rOqeJxI7--8">
    <mxGraphModel dx="1927" dy="585" grid="1" gridSize="10" guides="1" tooltips="1" connect="1" arrows="1" fold="1" page="1" pageScale="1" pageWidth="827" pageHeight="1169" math="0" shadow="0">
      <root>
        <mxCell id="0" />
        <mxCell id="1" parent="0" />
        <mxCell id="F7qAAQ8AOb8YhC52KJja-10" style="edgeStyle=orthogonalEdgeStyle;rounded=0;orthogonalLoop=1;jettySize=auto;html=1;exitX=1;exitY=0.5;exitDx=0;exitDy=0;entryX=0;entryY=0.5;entryDx=0;entryDy=0;" edge="1" parent="1" source="F7qAAQ8AOb8YhC52KJja-1" target="F7qAAQ8AOb8YhC52KJja-8">
          <mxGeometry relative="1" as="geometry" />
        </mxCell>
        <mxCell id="F7qAAQ8AOb8YhC52KJja-12" style="edgeStyle=orthogonalEdgeStyle;rounded=0;orthogonalLoop=1;jettySize=auto;html=1;exitX=0.5;exitY=1;exitDx=0;exitDy=0;entryX=0.5;entryY=0;entryDx=0;entryDy=0;" edge="1" parent="1" source="F7qAAQ8AOb8YhC52KJja-1" target="F7qAAQ8AOb8YhC52KJja-7">
          <mxGeometry relative="1" as="geometry" />
        </mxCell>
        <mxCell id="F7qAAQ8AOb8YhC52KJja-1" value="&lt;b&gt;Sala&lt;/b&gt;" style="rounded=0;whiteSpace=wrap;html=1;fillColor=#d5e8d4;strokeColor=#82b366;gradientColor=#97d077;" vertex="1" parent="1">
          <mxGeometry x="160" y="120" width="140" height="40" as="geometry" />
        </mxCell>
        <mxCell id="F7qAAQ8AOb8YhC52KJja-2" value="&lt;b&gt;Aparato&lt;/b&gt;" style="rounded=0;whiteSpace=wrap;html=1;fillColor=#d5e8d4;gradientColor=#97d077;strokeColor=#82b366;" vertex="1" parent="1">
          <mxGeometry x="620" y="120" width="140" height="40" as="geometry" />
        </mxCell>
        <mxCell id="F7qAAQ8AOb8YhC52KJja-3" value="&lt;b&gt;Clase&lt;/b&gt;" style="rounded=0;whiteSpace=wrap;html=1;fillColor=#d5e8d4;gradientColor=#97d077;strokeColor=#82b366;" vertex="1" parent="1">
          <mxGeometry x="160" y="450" width="140" height="40" as="geometry" />
        </mxCell>
        <mxCell id="F7qAAQ8AOb8YhC52KJja-14" style="edgeStyle=orthogonalEdgeStyle;rounded=0;orthogonalLoop=1;jettySize=auto;html=1;exitX=1;exitY=0.5;exitDx=0;exitDy=0;entryX=0;entryY=0.5;entryDx=0;entryDy=0;" edge="1" parent="1" source="F7qAAQ8AOb8YhC52KJja-4" target="F7qAAQ8AOb8YhC52KJja-6">
          <mxGeometry relative="1" as="geometry" />
        </mxCell>
        <mxCell id="F7qAAQ8AOb8YhC52KJja-4" value="&lt;b&gt;Entrenador&lt;/b&gt;" style="rounded=0;whiteSpace=wrap;html=1;fillColor=#d5e8d4;gradientColor=#97d077;strokeColor=#82b366;" vertex="1" parent="1">
          <mxGeometry x="-330" y="450" width="140" height="40" as="geometry" />
        </mxCell>
        <mxCell id="F7qAAQ8AOb8YhC52KJja-16" style="edgeStyle=orthogonalEdgeStyle;rounded=0;orthogonalLoop=1;jettySize=auto;html=1;exitX=0;exitY=0.5;exitDx=0;exitDy=0;entryX=1;entryY=0.5;entryDx=0;entryDy=0;" edge="1" parent="1">
          <mxGeometry relative="1" as="geometry">
            <mxPoint x="659" y="472" as="sourcePoint" />
            <mxPoint x="549" y="472" as="targetPoint" />
          </mxGeometry>
        </mxCell>
        <mxCell id="F7qAAQ8AOb8YhC52KJja-5" value="&lt;b&gt;Socio&lt;/b&gt;" style="rounded=0;whiteSpace=wrap;html=1;fillColor=#d5e8d4;gradientColor=#97d077;strokeColor=#82b366;" vertex="1" parent="1">
          <mxGeometry x="660" y="450" width="140" height="40" as="geometry" />
        </mxCell>
        <mxCell id="F7qAAQ8AOb8YhC52KJja-15" style="edgeStyle=orthogonalEdgeStyle;rounded=0;orthogonalLoop=1;jettySize=auto;html=1;exitX=1;exitY=0.5;exitDx=0;exitDy=0;" edge="1" parent="1" source="F7qAAQ8AOb8YhC52KJja-6" target="F7qAAQ8AOb8YhC52KJja-3">
          <mxGeometry relative="1" as="geometry" />
        </mxCell>
        <mxCell id="F7qAAQ8AOb8YhC52KJja-6" value="Imparte" style="rhombus;whiteSpace=wrap;html=1;fillColor=#e6d0de;gradientColor=#d5739d;strokeColor=#996185;" vertex="1" parent="1">
          <mxGeometry x="-90" y="430" width="130" height="80" as="geometry" />
        </mxCell>
        <mxCell id="F7qAAQ8AOb8YhC52KJja-13" style="edgeStyle=orthogonalEdgeStyle;rounded=0;orthogonalLoop=1;jettySize=auto;html=1;exitX=0.5;exitY=1;exitDx=0;exitDy=0;entryX=0.5;entryY=0;entryDx=0;entryDy=0;" edge="1" parent="1" source="F7qAAQ8AOb8YhC52KJja-7" target="F7qAAQ8AOb8YhC52KJja-3">
          <mxGeometry relative="1" as="geometry" />
        </mxCell>
        <mxCell id="F7qAAQ8AOb8YhC52KJja-7" value="Alberga" style="rhombus;whiteSpace=wrap;html=1;fillColor=#e6d0de;gradientColor=#d5739d;strokeColor=#996185;" vertex="1" parent="1">
          <mxGeometry x="165" y="270" width="130" height="80" as="geometry" />
        </mxCell>
        <mxCell id="F7qAAQ8AOb8YhC52KJja-11" style="edgeStyle=orthogonalEdgeStyle;rounded=0;orthogonalLoop=1;jettySize=auto;html=1;exitX=1;exitY=0.5;exitDx=0;exitDy=0;entryX=0;entryY=0.5;entryDx=0;entryDy=0;" edge="1" parent="1" source="F7qAAQ8AOb8YhC52KJja-8" target="F7qAAQ8AOb8YhC52KJja-2">
          <mxGeometry relative="1" as="geometry" />
        </mxCell>
        <mxCell id="F7qAAQ8AOb8YhC52KJja-8" value="Contiene" style="rhombus;whiteSpace=wrap;html=1;fillColor=#e6d0de;gradientColor=#d5739d;strokeColor=#996185;" vertex="1" parent="1">
          <mxGeometry x="400" y="100" width="130" height="80" as="geometry" />
        </mxCell>
        <mxCell id="F7qAAQ8AOb8YhC52KJja-17" style="edgeStyle=orthogonalEdgeStyle;rounded=0;orthogonalLoop=1;jettySize=auto;html=1;exitX=0;exitY=0.5;exitDx=0;exitDy=0;entryX=1;entryY=0.5;entryDx=0;entryDy=0;" edge="1" parent="1" source="F7qAAQ8AOb8YhC52KJja-9" target="F7qAAQ8AOb8YhC52KJja-3">
          <mxGeometry relative="1" as="geometry" />
        </mxCell>
        <mxCell id="F7qAAQ8AOb8YhC52KJja-9" value="Asiste" style="rhombus;whiteSpace=wrap;html=1;fillColor=#e6d0de;gradientColor=#d5739d;strokeColor=#996185;" vertex="1" parent="1">
          <mxGeometry x="420" y="430" width="130" height="80" as="geometry" />
        </mxCell>
        <mxCell id="F7qAAQ8AOb8YhC52KJja-18" value="1.N" style="text;html=1;align=center;verticalAlign=middle;resizable=0;points=[];autosize=1;strokeColor=none;fillColor=none;" vertex="1" parent="1">
          <mxGeometry x="290" y="108" width="40" height="30" as="geometry" />
        </mxCell>
        <mxCell id="F7qAAQ8AOb8YhC52KJja-19" value="1.N" style="text;html=1;align=center;verticalAlign=middle;resizable=0;points=[];autosize=1;strokeColor=none;fillColor=none;" vertex="1" parent="1">
          <mxGeometry x="220" y="158" width="40" height="30" as="geometry" />
        </mxCell>
        <mxCell id="F7qAAQ8AOb8YhC52KJja-20" value="1.N" style="text;html=1;align=center;verticalAlign=middle;resizable=0;points=[];autosize=1;strokeColor=none;fillColor=none;" vertex="1" parent="1">
          <mxGeometry x="-190" y="438" width="40" height="30" as="geometry" />
        </mxCell>
        <mxCell id="F7qAAQ8AOb8YhC52KJja-21" value="N.M" style="text;html=1;align=center;verticalAlign=middle;resizable=0;points=[];autosize=1;strokeColor=none;fillColor=none;" vertex="1" parent="1">
          <mxGeometry x="295" y="444" width="50" height="30" as="geometry" />
        </mxCell>
        <mxCell id="F7qAAQ8AOb8YhC52KJja-22" value="N.M" style="text;html=1;align=center;verticalAlign=middle;resizable=0;points=[];autosize=1;strokeColor=none;fillColor=none;" vertex="1" parent="1">
          <mxGeometry x="620" y="450" width="50" height="30" as="geometry" />
        </mxCell>
        <mxCell id="F7qAAQ8AOb8YhC52KJja-24" value="N.1" style="text;html=1;align=center;verticalAlign=middle;resizable=0;points=[];autosize=1;strokeColor=none;fillColor=none;" vertex="1" parent="1">
          <mxGeometry x="582" y="117" width="40" height="30" as="geometry" />
        </mxCell>
        <mxCell id="F7qAAQ8AOb8YhC52KJja-25" value="N.1" style="text;html=1;align=center;verticalAlign=middle;resizable=0;points=[];autosize=1;strokeColor=none;fillColor=none;" vertex="1" parent="1">
          <mxGeometry x="224" y="420" width="40" height="30" as="geometry" />
        </mxCell>
        <mxCell id="F7qAAQ8AOb8YhC52KJja-26" value="N.1" style="text;html=1;align=center;verticalAlign=middle;resizable=0;points=[];autosize=1;strokeColor=none;fillColor=none;" vertex="1" parent="1">
          <mxGeometry x="120" y="446" width="40" height="30" as="geometry" />
        </mxCell>
        <mxCell id="F7qAAQ8AOb8YhC52KJja-27" value="1..N" style="text;html=1;align=center;verticalAlign=middle;resizable=0;points=[];autosize=1;strokeColor=none;fillColor=none;" vertex="1" parent="1">
          <mxGeometry x="440" y="180" width="50" height="30" as="geometry" />
        </mxCell>
        <mxCell id="F7qAAQ8AOb8YhC52KJja-28" value="1.M" style="text;html=1;align=center;verticalAlign=middle;resizable=0;points=[];autosize=1;strokeColor=none;fillColor=none;" vertex="1" parent="1">
          <mxGeometry x="290" y="288" width="40" height="30" as="geometry" />
        </mxCell>
        <mxCell id="F7qAAQ8AOb8YhC52KJja-29" value="1.N" style="text;html=1;align=center;verticalAlign=middle;resizable=0;points=[];autosize=1;strokeColor=none;fillColor=none;" vertex="1" parent="1">
          <mxGeometry x="-45" y="400" width="40" height="30" as="geometry" />
        </mxCell>
      </root>
    </mxGraphModel>
  </diagram>
</mxfile>
